# xmcd CD Database Entry
#
# Track frame offsets:
# 150
# 24715
# 45986
# 69898
# 95039
# 114880
# 128965
# 146128
# 162456
# 182221
# 206418
# 228021
# 248742
# 268415
# 291438
# 313501
#
# Disc length: 4463 seconds
#
# Revision: 1
# Processed by: cddbd v1.4PL0 Copyright (c) Steve Scherf et al.
# Submitted via: tcd 2.0b
#
DISCID=e9116d10
DTITLE=Desconocido - Desconocido
DYEAR=1900
DGENRE=
TTITLE0=Pista 1:apple of sadom
TTITLE1=Pista 2:
TTITLE2=Pista 3:mister superstar
TTITLE3=Pista 4:coma withe
TTITLE4=Pista 5
TTITLE5=Pista 6
TTITLE6=Pista 7
TTITLE7=Pista 8:nobodies
TTITLE8=Pista 9:the long hard road out of hell
TTITLE9=Pista 10:man that you fear
TTITLE10=Pista 11:the figth song
TTITLE11=Pista 12:apple of sadom
TTITLE12=Pista 13
TTITLE13=Pista 14
TTITLE14=Pista 15:get your gun
TTITLE15=Pista 16
EXTD=
EXTT0=
EXTT1=
EXTT2=
EXTT3=
EXTT4=
EXTT5=
EXTT6=
EXTT7=
EXTT8=
EXTT9=
EXTT10=
EXTT11=
EXTT12=
EXTT13=
EXTT14=
EXTT15=
PLAYORDER=
